<svg width="40" height="40" viewBox="0 0 40 40" fill="none" xmlns="http://www.w3.org/2000/svg">
<g opacity="0.7">
<path d="M31.4833 11.6867C32.83 10.86 33.7217 9.73167 34.1584 8.29667C32.9285 8.96185 31.6086 9.44521 30.24 9.73167C29.0683 8.47167 27.585 7.83167 25.8067 7.83167C24.0684 7.83167 22.6 8.44167 21.4017 9.62833C20.823 10.1918 20.3654 10.8676 20.0571 11.6141C19.7487 12.3607 19.596 13.1624 19.6084 13.97C19.6084 14.485 19.6734 14.945 19.8034 15.335C14.6767 15.16 10.4334 13.0333 7.09002 8.94C6.52335 9.94167 6.24002 10.9617 6.24002 12.0167C6.24002 14.185 7.15502 15.9033 8.98169 17.165C7.94002 17.0767 7.02169 16.8133 6.24002 16.3817C6.24002 17.93 6.69502 19.2233 7.60669 20.3617C8.49228 21.4709 9.74032 22.2327 11.1317 22.5133C10.6117 22.6467 10.0634 22.71 9.50002 22.71C8.98002 22.71 8.61168 22.6667 8.39335 22.5717C8.77668 23.8333 9.50002 24.8567 10.545 25.64C11.5781 26.4244 12.8347 26.8583 14.1317 26.8783C11.9117 28.62 9.37335 29.4817 6.50169 29.4817C5.79835 29.4817 5.30002 29.4717 4.99835 29.4183C7.82669 31.255 10.975 32.1667 14.4584 32.1667C18.0234 32.1667 21.1734 31.2633 23.915 29.4567C26.6567 27.66 28.68 25.4433 29.98 22.8333C31.2656 20.3078 31.935 17.5139 31.9334 14.68V13.9C33.1316 13.0165 34.169 11.9335 35 10.6983C33.8777 11.1848 32.6948 11.5172 31.4833 11.6867V11.6867Z" fill="#1F1F1F"/>
</g>
</svg>
